# xmcd
#
# Track frame offsets: 
#        150
#        14633
#        36510
#        57798
#        86338
#
# Disc length: 1334 seconds
#
# Revision: 3
# Processed by: cddbd v1.5.2PL0 Copyright (c) Steve Scherf et al.
# Submitted via: ExactAudioCopy v1.0b4
#
DISCID=39053405
DTITLE=Rednex - Cotton Eye Joe (Maxi-CD)
DYEAR=1994
DGENRE=Folk-Rock
TTITLE0=Cotton Eye Joe (Original Single Version)
TTITLE1=Cotton Eye Joe (Madcow Mix)
TTITLE2=Cotton Eye Joe (Madcow Instrumental)
TTITLE3=Cotton Eye Joe (Overworked Mix)
TTITLE4=Cotton Eye Joe (Original Instrumental)
EXTD=
EXTT0=
EXTT1=
EXTT2=
EXTT3=
EXTT4=
PLAYORDER=
